<svg width="210" height="90" viewBox="0 0 210 90" fill="none" xmlns="http://www.w3.org/2000/svg">
<rect width="210" height="90" fill="white"/>
<path d="M31.7319 72.7974C33.1225 74.6471 34.9287 76.1442 37.0069 77.1648C39.2526 78.2768 41.7312 78.8404 44.2381 78.8056C46.2641 78.8579 48.2814 78.514 50.1768 77.7937C51.6914 77.1975 53.0449 76.253 54.1243 75.0344C55.1362 73.8462 55.8761 72.4513 56.2895 70.9476C56.74 69.3221 56.9641 67.6399 56.9532 65.9534V60.0844H56.814C55.4996 62.167 53.6064 63.8187 51.3628 64.8349C49.2258 65.7663 46.9169 66.2407 44.5863 66.232C42.3014 66.2494 40.036 65.8229 37.9143 64.9742C35.9058 64.1777 34.0669 63.0026 32.5001 61.5163C30.9442 60.0213 29.7081 58.2282 28.866 56.2414C27.9716 54.1436 27.519 51.8848 27.5385 49.6042C27.519 47.3301 27.9477 45.0757 28.7963 42.967C29.5993 40.9715 30.7723 39.1457 32.2542 37.5876C33.7362 36.0404 35.5184 34.8174 37.4943 33.9883C39.6073 33.1092 41.877 32.6696 44.1663 32.6957C45.2087 32.7022 46.2489 32.7958 47.2738 32.9742C48.4032 33.1723 49.5044 33.5009 50.5576 33.9535C53.058 35.0372 55.2167 36.7759 56.8118 38.9847H56.9511V33.5335H61.5623V65.9512C61.547 67.8554 61.3229 69.7529 60.8986 71.6092C60.4524 73.6156 59.5711 75.5001 58.3133 77.1278C56.8836 78.9231 55.0535 80.3594 52.9688 81.3212C50.686 82.4376 47.7047 82.9969 44.0249 82.9969C41.0349 83.0469 38.0666 82.5007 35.2921 81.3909C32.6372 80.2528 30.2543 78.5619 28.3067 76.4315L31.7298 72.7974H31.7319ZM32.5697 49.4627C32.5589 51.1275 32.8788 52.7792 33.5142 54.3177C34.1192 55.7953 34.9961 57.1466 36.0994 58.3C37.1962 59.4446 38.4997 60.3695 39.9425 61.0245C41.444 61.7078 43.0783 62.0538 44.7278 62.0364C47.9963 62.0473 51.1452 60.8112 53.5302 58.5785C54.7031 57.4731 55.6193 56.126 56.2199 54.631C56.8662 52.9881 57.1643 51.2276 57.0925 49.4627C57.1034 47.8067 56.8205 46.1616 56.2547 44.6056C55.7172 43.1259 54.8837 41.7723 53.8087 40.6233C52.7033 39.4591 51.3715 38.5321 49.8961 37.8988C48.2618 37.2046 46.5013 36.8586 44.7256 36.8847C43.0761 36.8695 41.4418 37.2155 39.9403 37.8988C38.4997 38.556 37.194 39.4809 36.0972 40.6233C34.994 41.7767 34.117 43.128 33.512 44.6056C32.8788 46.1463 32.5567 47.7958 32.5697 49.4627ZM80.3575 66.2298H75.3284V16.7643H90.5591C95.5904 16.7643 99.5596 17.8589 102.471 20.048C105.383 22.2372 106.837 25.5449 106.839 29.969C106.928 33.181 105.762 36.2994 103.59 38.667C101.425 41.0194 98.2909 42.3816 94.1933 42.7537L108.447 66.2298H102.297L88.7443 43.2434H80.3596V66.2298H80.3575ZM80.3575 38.6322H89.3013C91.2229 38.6735 93.14 38.4363 94.9963 37.9336C96.352 37.5702 97.6229 36.9413 98.7349 36.0817C99.6314 35.3614 100.328 34.4235 100.761 33.3572C101.185 32.2779 101.398 31.1267 101.39 29.969C101.394 28.8331 101.181 27.7058 100.761 26.6504C100.323 25.5776 99.6271 24.6288 98.7349 23.8911C97.6337 23.0141 96.3607 22.383 94.9963 22.0392C93.1379 21.5605 91.2207 21.3363 89.3013 21.3755H80.3575V38.6322ZM117.106 16.7643H131.499C136.528 16.7643 140.499 17.8589 143.411 20.048C146.322 22.2372 147.776 25.5449 147.778 29.969C147.778 34.3952 146.322 37.7138 143.411 39.9248C140.499 42.1379 136.53 43.2434 131.499 43.2434H122.137V66.2298H117.106V16.7643ZM122.137 38.6343H130.241C132.162 38.6757 134.079 38.4385 135.936 37.9358C137.291 37.5724 138.562 36.9435 139.674 36.0839C140.571 35.3636 141.267 34.4257 141.7 33.3594C142.125 32.2801 142.34 31.1289 142.329 29.9712C142.334 28.8352 142.12 27.708 141.7 26.6526C141.263 25.5798 140.567 24.631 139.674 23.8933C138.573 23.0163 137.3 22.3852 135.936 22.0414C134.077 21.5626 132.16 21.3407 130.241 21.3777H122.135V38.6343H122.137ZM198.288 58.4066C197.403 59.7188 196.36 60.9157 195.181 61.9689C193.903 63.1158 192.482 64.0907 190.953 64.8675C189.32 65.701 187.597 66.3451 185.817 66.7891C183.908 67.2635 181.948 67.4963 179.983 67.4876C176.475 67.5202 172.995 66.8565 169.748 65.5313C163.553 63.0287 158.646 58.1085 156.158 51.9065C154.827 48.5988 154.163 45.0604 154.202 41.4959C154.163 37.9315 154.827 34.3931 156.158 31.0854C158.646 24.8834 163.553 19.9654 169.748 17.4628C172.997 16.1375 176.475 15.4738 179.983 15.5065C183.145 15.5239 186.274 16.1397 189.205 17.3235C192.332 18.5748 195.061 20.6508 197.1 23.3318L192.7 26.6156C192.108 25.7343 191.403 24.9356 190.604 24.2393C189.68 23.421 188.659 22.716 187.566 22.1437C186.398 21.5278 185.168 21.036 183.898 20.6769C182.627 20.3092 181.308 20.1199 179.985 20.1177C177.049 20.0698 174.14 20.6661 171.461 21.8651C169.03 22.9684 166.854 24.5613 165.07 26.546C163.303 28.5349 161.938 30.8503 161.053 33.3594C159.19 38.6256 159.19 44.3706 161.053 49.6368C161.938 52.1459 163.303 54.4591 165.07 56.4481C166.854 58.4327 169.03 60.0278 171.461 61.129C174.14 62.328 177.049 62.9243 179.985 62.8764C181.286 62.8764 182.583 62.7589 183.863 62.526C185.164 62.2867 186.431 61.8884 187.636 61.3379C188.905 60.7547 190.082 59.9908 191.129 59.066C192.306 58.0149 193.329 56.805 194.167 55.4689L198.288 58.4023V58.4066Z" fill="#244B5A"/>
<path d="M24.0263 32.959L11 20.0285L23.9305 7L36.959 19.9305L24.0263 32.959Z" fill="url(#paint0_linear_32_40)"/>
<path d="M59.4776 27.4403L51.835 19.8544L59.421 12.214L67.0614 19.7978L59.4776 27.4403Z" fill="url(#paint1_linear_32_40)"/>
<path d="M24.5007 12.1313L16.671 20.0219L24.5594 27.8516L31.2336 27.8277L24.2352 20.8837L58.7942 20.7575L55.7651 23.8062L59.1033 23.7932L63.0181 19.8479L59.0728 15.933L55.7368 15.9461L58.7877 18.9731L24.2287 19.1014L31.1749 12.1074L24.5007 12.1313Z" fill="#244B5A"/>
<defs>
<linearGradient id="paint0_linear_32_40" x1="10.4853" y1="19.7891" x2="36.4293" y2="19.6941" gradientUnits="userSpaceOnUse">
<stop stop-color="#72C9C9"/>
<stop offset="1" stop-color="#02B0AD"/>
</linearGradient>
<linearGradient id="paint1_linear_32_40" x1="52.035" y1="19.2288" x2="67.2509" y2="19.173" gradientUnits="userSpaceOnUse">
<stop stop-color="#03B6B4"/>
<stop offset="1" stop-color="#74CBCA"/>
</linearGradient>
</defs>
</svg>
