<svg width="210" height="90" viewBox="0 0 210 90" fill="none" xmlns="http://www.w3.org/2000/svg">
<rect width="210" height="90" fill="white"/>
<path d="M19.488 73.304C17.0987 73.304 15.2853 73.0267 14.048 72.472C12.8107 71.96 11.9787 71.064 11.552 69.784C11.1253 68.504 10.912 66.776 10.912 64.6V55C10.912 53.1653 10.656 51.6933 10.144 50.584C9.67467 49.4747 8.43733 48.92 6.432 48.92V44.632C8.43733 44.632 9.67467 44.0773 10.144 42.968C10.656 41.8587 10.912 40.3867 10.912 38.552V28.952C10.912 26.7333 11.1253 25.0053 11.552 23.768C11.9787 22.488 12.8107 21.592 14.048 21.08C15.2853 20.5253 17.0987 20.248 19.488 20.248H22.24V24.792H19.552C18.144 24.792 17.248 25.0693 16.864 25.624C16.48 26.1787 16.288 27.2667 16.288 28.888V38.68C16.288 41.368 15.8187 43.288 14.88 44.44C13.984 45.5493 12.768 46.3173 11.232 46.744V46.808C12.8533 47.2347 14.0907 48.024 14.944 49.176C15.84 50.328 16.288 52.2267 16.288 54.872V64.664C16.288 66.328 16.48 67.416 16.864 67.928C17.248 68.4827 18.144 68.76 19.552 68.76H22.24V73.304H19.488ZM188.051 73.304V68.76H190.739C192.147 68.76 193.043 68.4827 193.427 67.928C193.811 67.416 194.003 66.328 194.003 64.664V54.872C194.003 52.2267 194.451 50.328 195.347 49.176C196.243 48.024 197.48 47.2347 199.059 46.808V46.744C197.523 46.3173 196.286 45.5493 195.347 44.44C194.451 43.288 194.003 41.368 194.003 38.68V28.888C194.003 27.2667 193.811 26.1787 193.427 25.624C193.043 25.0693 192.147 24.792 190.739 24.792H188.051V20.248H190.803C193.192 20.248 195.006 20.5253 196.243 21.08C197.48 21.592 198.312 22.488 198.739 23.768C199.166 25.0053 199.379 26.7333 199.379 28.952V38.552C199.379 40.3867 199.635 41.8587 200.147 42.968C200.659 44.0773 201.896 44.632 203.859 44.632V48.92C201.896 48.92 200.659 49.4747 200.147 50.584C199.635 51.6933 199.379 53.1653 199.379 55V64.6C199.379 66.776 199.166 68.504 198.739 69.784C198.312 71.064 197.48 71.96 196.243 72.472C195.006 73.0267 193.192 73.304 190.803 73.304H188.051Z" fill="#26A54A"/>
<path d="M34.864 67V24.248H48.432C51.9307 24.248 55.0027 24.568 57.648 25.208C60.336 25.8053 62.4267 27 63.92 28.792C65.456 30.5413 66.224 33.1227 66.224 36.536C66.224 38.456 65.9253 40.248 65.328 41.912C64.7307 43.576 63.5787 44.984 61.872 46.136C60.208 47.288 57.712 48.0987 54.384 48.568L67.632 67H60.272L47.28 49.016H40.88V67H34.864ZM40.88 43.96H48.88C50.9707 43.96 52.848 43.8107 54.512 43.512C56.2187 43.2133 57.5627 42.552 58.544 41.528C59.568 40.4613 60.08 38.84 60.08 36.664C60.08 34.4453 59.568 32.824 58.544 31.8C57.5627 30.776 56.2187 30.1147 54.512 29.816C52.848 29.4747 50.9707 29.304 48.88 29.304H40.88V43.96ZM74.4265 67V24.248H103.419V29.432H80.4425V42.424H97.4025V47.608H80.4425V61.816H103.419V67H74.4265ZM124.819 67.768C122.472 67.768 120.19 67.4053 117.971 66.68C115.752 65.9547 113.79 64.8453 112.083 63.352C110.419 61.8587 109.203 59.96 108.435 57.656L114.003 55.992C114.515 57.528 115.347 58.808 116.499 59.832C117.651 60.8133 118.974 61.5387 120.467 62.008C122.003 62.4773 123.539 62.712 125.075 62.712C126.782 62.712 128.403 62.4347 129.939 61.88C131.475 61.3253 132.712 60.4933 133.651 59.384C134.632 58.232 135.123 56.8027 135.123 55.096C135.123 53.3467 134.483 51.96 133.203 50.936C131.923 49.912 129.704 48.9947 126.547 48.184L121.107 46.968C119.144 46.456 117.203 45.7733 115.283 44.92C113.406 44.0667 111.848 42.8507 110.611 41.272C109.416 39.6933 108.819 37.5813 108.819 34.936C108.819 32.504 109.566 30.4347 111.059 28.728C112.595 27.0213 114.558 25.72 116.947 24.824C119.379 23.928 121.896 23.48 124.499 23.48C126.504 23.48 128.467 23.7787 130.387 24.376C132.35 24.9307 134.099 25.8053 135.635 27C137.214 28.152 138.451 29.6453 139.347 31.48L133.843 33.08C133.032 31.5867 131.71 30.456 129.875 29.688C128.083 28.92 126.206 28.536 124.243 28.536C122.707 28.536 121.235 28.792 119.827 29.304C118.419 29.7733 117.267 30.4987 116.371 31.48C115.475 32.4613 115.027 33.6987 115.027 35.192C115.027 36.6 115.432 37.7307 116.243 38.584C117.096 39.4373 118.206 40.12 119.571 40.632C120.979 41.1013 122.515 41.528 124.179 41.912L128.851 42.936C131.027 43.448 133.075 44.152 134.995 45.048C136.915 45.944 138.472 47.2027 139.667 48.824C140.862 50.4453 141.459 52.6213 141.459 55.352C141.459 57.3147 140.99 59.0853 140.051 60.664C139.112 62.2 137.854 63.5013 136.275 64.568C134.696 65.592 132.904 66.3813 130.899 66.936C128.936 67.4907 126.91 67.768 124.819 67.768ZM158.848 67V29.432H144.64V24.248H179.072V29.432H164.864V67H158.848Z" fill="#4D4D4D"/>
</svg>
