<svg width="210" height="90" viewBox="0 0 210 90" fill="none" xmlns="http://www.w3.org/2000/svg">
<rect width="210" height="90" fill="white"/>
<path fill-rule="evenodd" clip-rule="evenodd" d="M32.0654 20.8657L53.0151 32.9328V57.0671L32.0654 69.1342L11.1157 57.0671V32.9328L32.0654 20.8657ZM13.4663 34.2868V52.0141L28.8544 25.4232L13.4663 34.2868ZM32.0654 24.5648L14.3267 55.2176H49.8041L32.0654 24.5648ZM47.4535 57.5627H16.6773L32.0654 66.4263L47.4535 57.5627ZM50.6645 52.0141L35.2764 25.4232L50.6645 34.2868V52.0141Z" fill="#E10098"/>
<path d="M32.0654 27.1589C34.7996 27.1589 37.0161 24.9475 37.0161 22.2197C37.0161 19.4919 34.7996 17.2805 32.0654 17.2805C29.3312 17.2805 27.1147 19.4919 27.1147 22.2197C27.1147 24.9475 29.3312 27.1589 32.0654 27.1589Z" fill="#E10098"/>
<path d="M51.8398 38.5491C54.574 38.5491 56.7906 36.3377 56.7906 33.6099C56.7906 30.882 54.574 28.6707 51.8398 28.6707C49.1056 28.6707 46.8891 30.882 46.8891 33.6099C46.8891 36.3377 49.1056 38.5491 51.8398 38.5491Z" fill="#E10098"/>
<path d="M51.8398 61.3294C54.574 61.3294 56.7906 59.118 56.7906 56.3902C56.7906 53.6623 54.574 51.451 51.8398 51.451C49.1056 51.451 46.8891 53.6623 46.8891 56.3902C46.8891 59.118 49.1056 61.3294 51.8398 61.3294Z" fill="#E10098"/>
<path d="M32.0654 72.7195C34.7996 72.7195 37.0161 70.5081 37.0161 67.7803C37.0161 65.0524 34.7996 62.8411 32.0654 62.8411C29.3312 62.8411 27.1147 65.0524 27.1147 67.7803C27.1147 70.5081 29.3312 72.7195 32.0654 72.7195Z" fill="#E10098"/>
<path d="M12.2882 61.3294C15.0224 61.3294 17.2389 59.118 17.2389 56.3902C17.2389 53.6623 15.0224 51.451 12.2882 51.451C9.554 51.451 7.33748 53.6623 7.33748 56.3902C7.33748 59.118 9.554 61.3294 12.2882 61.3294Z" fill="#E10098"/>
<path d="M12.2882 38.5491C15.0224 38.5491 17.2389 36.3377 17.2389 33.6099C17.2389 30.882 15.0224 28.6707 12.2882 28.6707C9.554 28.6707 7.33748 30.882 7.33748 33.6099C7.33748 36.3377 9.554 38.5491 12.2882 38.5491Z" fill="#E10098"/>
<path d="M81.9516 57.11C79.0283 57.11 76.7595 56.27 75.1458 54.59C73.532 52.91 72.6783 50.6584 72.5851 47.835C72.5615 47.135 72.5497 46.0267 72.5497 44.51C72.5497 42.9934 72.5615 41.885 72.5851 41.185C72.6783 38.3617 73.532 36.11 75.1458 34.43C76.7595 32.75 79.0283 31.91 81.9516 31.91C83.9398 31.91 85.6119 32.2834 86.9686 33.03C88.3247 33.7767 89.3306 34.6634 89.9856 35.69C90.6637 36.6934 91.0263 37.5917 91.0729 38.385V38.455C91.0729 38.6417 91.0027 38.7934 90.8624 38.91C90.7221 39.0267 90.5469 39.085 90.3359 39.085H89.5647C89.3542 39.085 89.2021 39.0384 89.1083 38.945C89.0146 38.8517 88.9214 38.665 88.8277 38.385C88.4303 37.1484 87.6585 36.11 86.5123 35.27C85.3896 34.43 83.8696 34.01 81.9516 34.01C79.7766 34.01 78.0578 34.605 76.7949 35.795C75.555 36.985 74.8887 38.84 74.795 41.36C74.7714 42.06 74.7602 43.11 74.7602 44.51C74.7602 45.91 74.7714 46.96 74.795 47.66C74.8887 50.18 75.555 52.035 76.7949 53.225C78.0578 54.415 79.7766 55.01 81.9516 55.01C84.1267 55.01 85.8808 54.3917 87.2139 53.155C88.547 51.9184 89.2133 50.0867 89.2133 47.66V45.875H83.1096C82.8756 45.875 82.6886 45.805 82.5483 45.665C82.408 45.5017 82.3378 45.3034 82.3378 45.07V44.58C82.3378 44.3467 82.408 44.16 82.5483 44.02C82.6886 43.8567 82.8756 43.775 83.1096 43.775H90.6165C90.8742 43.775 91.0729 43.845 91.2132 43.985C91.3535 44.125 91.4237 44.3234 91.4237 44.58V47.66C91.4237 49.5267 91.0493 51.1717 90.3011 52.595C89.5529 54.0184 88.4651 55.1267 87.0388 55.92C85.6119 56.7134 83.9162 57.11 81.9516 57.11Z" fill="#E10098"/>
<path d="M97.144 56.76C96.9105 56.76 96.723 56.69 96.5827 56.55C96.4424 56.41 96.3722 56.2233 96.3722 55.99V39.365C96.3722 39.1316 96.4424 38.945 96.5827 38.805C96.723 38.6416 96.9105 38.56 97.144 38.56H97.7053C97.9394 38.56 98.1263 38.6416 98.2666 38.805C98.4305 38.945 98.5125 39.1316 98.5125 39.365V40.975C99.3544 39.365 100.945 38.56 103.284 38.56H104.581C104.815 38.56 105.002 38.63 105.143 38.77C105.283 38.91 105.353 39.0966 105.353 39.33V39.82C105.353 40.0533 105.283 40.24 105.143 40.38C105.002 40.52 104.815 40.59 104.581 40.59H103.073C101.67 40.59 100.559 40.9983 99.74 41.815C98.9217 42.6316 98.5125 43.74 98.5125 45.14V55.99C98.5125 56.2233 98.4305 56.41 98.2666 56.55C98.1263 56.69 97.9394 56.76 97.7053 56.76H97.144Z" fill="#E10098"/>
<path d="M113.206 57.11C112.084 57.11 111.043 56.8766 110.084 56.41C109.125 55.9433 108.353 55.3133 107.768 54.52C107.207 53.7266 106.926 52.8516 106.926 51.895C106.926 50.355 107.546 49.095 108.786 48.115C110.049 47.135 111.744 46.505 113.873 46.225L119.416 45.455V44.23C119.416 42.9466 119.018 41.9666 118.223 41.29C117.451 40.59 116.258 40.24 114.644 40.24C113.452 40.24 112.469 40.4733 111.698 40.94C110.949 41.4066 110.47 41.9666 110.26 42.62C110.166 42.9 110.049 43.0983 109.909 43.215C109.791 43.3083 109.628 43.355 109.418 43.355H108.926C108.716 43.355 108.528 43.285 108.365 43.145C108.225 42.9816 108.155 42.795 108.155 42.585C108.155 42.0716 108.388 41.4766 108.856 40.8C109.324 40.1 110.049 39.4933 111.031 38.98C112.014 38.4666 113.218 38.21 114.644 38.21C117.147 38.21 118.924 38.805 119.977 39.995C121.029 41.185 121.556 42.6316 121.556 44.335V55.99C121.556 56.2233 121.486 56.41 121.345 56.55C121.205 56.69 121.018 56.76 120.784 56.76H120.187C119.953 56.76 119.766 56.69 119.626 56.55C119.486 56.41 119.416 56.2233 119.416 55.99V54.345C118.901 55.115 118.141 55.7683 117.136 56.305C116.153 56.8416 114.843 57.11 113.206 57.11ZM113.557 55.08C115.264 55.08 116.667 54.52 117.767 53.4C118.866 52.28 119.416 50.67 119.416 48.57V47.38L114.89 48.01C112.972 48.2666 111.522 48.71 110.54 49.34C109.558 49.97 109.067 50.7633 109.067 51.72C109.067 52.7933 109.511 53.6216 110.4 54.205C111.312 54.7883 112.364 55.08 113.557 55.08Z" fill="#E10098"/>
<path d="M127.91 63.41C127.676 63.41 127.489 63.34 127.349 63.2C127.208 63.06 127.138 62.8733 127.138 62.64V39.33C127.138 39.0966 127.208 38.91 127.349 38.77C127.489 38.63 127.676 38.56 127.91 38.56H128.507C128.741 38.56 128.927 38.63 129.068 38.77C129.208 38.91 129.278 39.0966 129.278 39.33V40.975C130.635 39.1316 132.6 38.21 135.172 38.21C137.698 38.21 139.557 39.015 140.75 40.625C141.966 42.2116 142.609 44.1716 142.68 46.505C142.703 46.7383 142.714 47.1233 142.714 47.66C142.714 48.1966 142.703 48.5816 142.68 48.815C142.609 51.1483 141.966 53.12 140.75 54.73C139.557 56.3166 137.698 57.11 135.172 57.11C132.623 57.11 130.658 56.1883 129.278 54.345V62.64C129.278 62.8733 129.208 63.06 129.068 63.2C128.927 63.34 128.741 63.41 128.507 63.41H127.91ZM134.962 55.08C136.856 55.08 138.236 54.485 139.101 53.295C139.99 52.0816 140.469 50.53 140.539 48.64C140.563 48.4066 140.575 48.08 140.575 47.66C140.575 45.49 140.154 43.7166 139.312 42.34C138.47 40.94 137.02 40.24 134.962 40.24C133.114 40.24 131.722 40.8583 130.787 42.095C129.851 43.3083 129.348 44.7433 129.278 46.4L129.243 47.765L129.278 49.13C129.302 50.1333 129.524 51.09 129.945 52C130.366 52.8866 130.997 53.6216 131.839 54.205C132.681 54.7883 133.722 55.08 134.962 55.08Z" fill="#E10098"/>
<path d="M148.294 56.76C148.061 56.76 147.873 56.69 147.733 56.55C147.593 56.41 147.523 56.2234 147.523 55.99V32.68C147.523 32.4467 147.593 32.26 147.733 32.12C147.873 31.98 148.061 31.91 148.294 31.91H148.891C149.125 31.91 149.312 31.98 149.452 32.12C149.593 32.26 149.663 32.4467 149.663 32.68V40.975C150.364 40.065 151.16 39.3767 152.048 38.91C152.96 38.4434 154.13 38.21 155.557 38.21C157.848 38.21 159.614 38.945 160.854 40.415C162.093 41.8617 162.713 43.74 162.713 46.05V55.99C162.713 56.2234 162.643 56.41 162.503 56.55C162.362 56.69 162.175 56.76 161.941 56.76H161.345C161.111 56.76 160.924 56.69 160.783 56.55C160.643 56.41 160.573 56.2234 160.573 55.99V46.225C160.573 44.335 160.105 42.865 159.17 41.815C158.258 40.765 156.936 40.24 155.206 40.24C153.522 40.24 152.177 40.7767 151.171 41.85C150.166 42.9 149.663 44.3584 149.663 46.225V55.99C149.663 56.2234 149.593 56.41 149.452 56.55C149.312 56.69 149.125 56.76 148.891 56.76H148.294Z" fill="#E10098"/>
<path d="M184.563 59.035C184.212 59.035 183.837 58.7667 183.44 58.23L181.896 56.095C180.493 56.7717 178.856 57.11 176.985 57.11C170.975 57.11 167.887 53.89 167.723 47.45C167.7 46.75 167.689 45.77 167.689 44.51C167.689 43.25 167.7 42.27 167.723 41.57C167.817 38.3967 168.682 35.9934 170.319 34.36C171.957 32.7267 174.178 31.91 176.985 31.91C179.792 31.91 182.013 32.7267 183.651 34.36C185.288 35.9934 186.153 38.3967 186.247 41.57C186.293 42.97 186.317 43.95 186.317 44.51C186.317 45.07 186.293 46.05 186.247 47.45C186.13 50.7867 185.276 53.2367 183.686 54.8L185.931 57.95C186.001 58.09 186.036 58.2184 186.036 58.335C186.036 58.5217 185.966 58.685 185.826 58.825C185.685 58.965 185.521 59.035 185.334 59.035H184.563ZM176.985 55.01C179.09 55.01 180.762 54.38 182.002 53.12C183.265 51.8367 183.943 49.8884 184.037 47.275C184.083 45.875 184.107 44.9534 184.107 44.51C184.107 44.0667 184.083 43.145 184.037 41.745C183.943 39.1317 183.265 37.195 182.002 35.935C180.739 34.6517 179.066 34.01 176.985 34.01C174.904 34.01 173.232 34.6517 171.969 35.935C170.706 37.195 170.027 39.1317 169.934 41.745C169.91 42.445 169.898 43.3667 169.898 44.51C169.898 45.6534 169.91 46.575 169.934 47.275C170.027 49.8884 170.694 51.8367 171.933 53.12C173.196 54.38 174.88 55.01 176.985 55.01Z" fill="#E10098"/>
<path d="M192.67 56.76C192.437 56.76 192.249 56.69 192.109 56.55C191.969 56.41 191.898 56.2233 191.898 55.99V33.03C191.898 32.7966 191.969 32.61 192.109 32.47C192.249 32.33 192.437 32.26 192.67 32.26H193.337C193.571 32.26 193.758 32.33 193.898 32.47C194.039 32.61 194.109 32.7966 194.109 33.03V54.66H206.212C206.469 54.66 206.668 54.73 206.808 54.87C206.949 55.01 207.019 55.2083 207.019 55.465V55.99C207.019 56.2233 206.937 56.41 206.773 56.55C206.633 56.69 206.446 56.76 206.212 56.76H192.67Z" fill="#E10098"/>
</svg>
