<svg width="210" height="90" viewBox="0 0 210 90" fill="none" xmlns="http://www.w3.org/2000/svg">
<rect width="210" height="90" fill="white"/>
<path d="M42.944 67.768C40.5973 67.768 38.3147 67.4053 36.096 66.68C33.8773 65.9547 31.9147 64.8453 30.208 63.352C28.544 61.8587 27.328 59.96 26.56 57.656L32.128 55.992C32.64 57.528 33.472 58.808 34.624 59.832C35.776 60.8133 37.0987 61.5387 38.592 62.008C40.128 62.4773 41.664 62.712 43.2 62.712C44.9067 62.712 46.528 62.4347 48.064 61.88C49.6 61.3253 50.8373 60.4933 51.776 59.384C52.7573 58.232 53.248 56.8027 53.248 55.096C53.248 53.3467 52.608 51.96 51.328 50.936C50.048 49.912 47.8293 48.9947 44.672 48.184L39.232 46.968C37.2693 46.456 35.328 45.7733 33.408 44.92C31.5307 44.0667 29.9733 42.8507 28.736 41.272C27.5413 39.6933 26.944 37.5813 26.944 34.936C26.944 32.504 27.6907 30.4347 29.184 28.728C30.72 27.0213 32.6827 25.72 35.072 24.824C37.504 23.928 40.0213 23.48 42.624 23.48C44.6293 23.48 46.592 23.7787 48.512 24.376C50.4747 24.9307 52.224 25.8053 53.76 27C55.3387 28.152 56.576 29.6453 57.472 31.48L51.968 33.08C51.1573 31.5867 49.8347 30.456 48 29.688C46.208 28.92 44.3307 28.536 42.368 28.536C40.832 28.536 39.36 28.792 37.952 29.304C36.544 29.7733 35.392 30.4987 34.496 31.48C33.6 32.4613 33.152 33.6987 33.152 35.192C33.152 36.6 33.5573 37.7307 34.368 38.584C35.2213 39.4373 36.3307 40.12 37.696 40.632C39.104 41.1013 40.64 41.528 42.304 41.912L46.976 42.936C49.152 43.448 51.2 44.152 53.12 45.048C55.04 45.944 56.5973 47.2027 57.792 48.824C58.9867 50.4453 59.584 52.6213 59.584 55.352C59.584 57.3147 59.1147 59.0853 58.176 60.664C57.2373 62.2 55.9787 63.5013 54.4 64.568C52.8213 65.592 51.0293 66.3813 49.024 66.936C47.0613 67.4907 45.0347 67.768 42.944 67.768ZM85.357 67.768C81.261 67.768 77.7197 66.8293 74.733 64.952C71.7463 63.032 69.421 60.408 67.757 57.08C66.1357 53.7093 65.325 49.8693 65.325 45.56C65.325 41.2507 66.1357 37.4533 67.757 34.168C69.421 30.84 71.7463 28.2373 74.733 26.36C77.7197 24.44 81.261 23.48 85.357 23.48C89.4957 23.48 93.0583 24.44 96.045 26.36C99.0317 28.2373 101.336 30.84 102.957 34.168C104.621 37.4533 105.453 41.2507 105.453 45.56C105.453 49.8693 104.621 53.7093 102.957 57.08C101.336 60.408 99.0317 63.032 96.045 64.952C93.0583 66.8293 89.4957 67.768 85.357 67.768ZM85.357 62.712C87.9597 62.712 90.3063 62.0507 92.397 60.728C94.5303 59.4053 96.2157 57.4853 97.453 54.968C98.6903 52.408 99.309 49.272 99.309 45.56C99.309 41.8907 98.6903 38.7973 97.453 36.28C96.2157 33.72 94.5303 31.8 92.397 30.52C90.3063 29.1973 87.9597 28.536 85.357 28.536C82.797 28.536 80.4503 29.1973 78.317 30.52C76.2263 31.8 74.5623 33.72 73.325 36.28C72.0877 38.7973 71.469 41.8907 71.469 45.56C71.469 49.272 72.0877 52.408 73.325 54.968C74.5623 57.4853 76.2263 59.4053 78.317 60.728C80.4503 62.0507 82.797 62.712 85.357 62.712ZM106.828 67L122.892 24.184H129.612L145.612 67H139.212L135.948 57.656H116.492L113.228 67H106.828ZM118.348 52.472H134.092L126.22 30.264L118.348 52.472ZM151.114 66.936V24.248H164.49C167.989 24.248 171.061 24.5893 173.706 25.272C176.394 25.9547 178.485 27.2347 179.978 29.112C181.514 30.9467 182.282 33.6347 182.282 37.176C182.282 40.6747 181.514 43.3627 179.978 45.24C178.485 47.0747 176.394 48.3333 173.706 49.016C171.061 49.656 167.989 49.976 164.49 49.976H157.13V66.936H151.114ZM157.13 44.792H165.002C167.093 44.792 168.97 44.6427 170.634 44.344C172.298 44.0453 173.621 43.3627 174.602 42.296C175.626 41.1867 176.138 39.48 176.138 37.176C176.138 34.8293 175.626 33.1013 174.602 31.992C173.621 30.8827 172.298 30.1573 170.634 29.816C168.97 29.4747 167.093 29.304 165.002 29.304H157.13V44.792Z" fill="#00255B"/>
</svg>
